<svg width="58" height="28" viewBox="0 0 58 28" version="1.1" xmlns="http://www.w3.org/2000/svg" xmlns:xlink="http://www.w3.org/1999/xlink">
<title>Group</title>
<desc>Created using Figma</desc>
<g id="Canvas" transform="translate(-6596 -2681)">
<g id="Group">
<g id="Union">
<use xlink:href="#path0_fill" transform="translate(6596 2681)"/>
</g>
<g id="Ellipse 9">
<use xlink:href="#path1_fill" transform="translate(6597.16 2692.2)" fill="#FF1818"/>
</g>
</g>
</g>
<defs>
<path id="path0_fill" fill-rule="evenodd" d="M 23.3936 0L 0 0L 0 5.6001L 23.3936 5.6001C 24.9399 5.6001 26.1934 4.34644 26.1934 2.80005C 26.1934 1.25366 24.9399 0 23.3936 0ZM 58 2.8064C 58 1.25659 56.7437 0 55.1934 0C 53.6436 0 52.3872 1.25659 52.3872 2.8064L 52.3872 28L 58 28L 58 2.8064ZM 31.7563 2.80005L 36.438 7.41797C 37.5469 8.51147 37.5469 10.2842 36.438 11.3777C 35.3296 12.4712 33.5322 12.4712 32.4233 11.3777L 27.7417 6.75977L 31.7563 2.80005ZM 41.104 7.41797C 39.9956 8.51147 39.9956 10.2844 41.104 11.3779C 42.2124 12.4714 44.0098 12.4714 45.1187 11.3779L 49.8003 6.76001L 45.7856 2.80029L 41.104 7.41797ZM 9.35498 14C 9.35498 12.4536 10.6084 11.2 12.1548 11.2L 23.3936 11.2C 24.9399 11.2 26.1938 12.4536 26.1938 14C 26.1938 15.5464 24.9399 16.8 23.3936 16.8L 12.1548 16.8C 10.6084 16.8 9.35498 15.5464 9.35498 14ZM 23.3936 22.3999L 0 22.3999L 0 28L 23.3936 28C 24.9399 28 26.1934 26.7463 26.1934 25.2C 26.1934 23.6536 24.9399 22.3999 23.3936 22.3999Z"/>
<path id="path1_fill" d="M 5.67742 2.8C 5.67742 4.3464 4.40649 5.6 2.83871 5.6C 1.27093 5.6 0 4.3464 0 2.8C 0 1.2536 1.27093 0 2.83871 0C 4.40649 0 5.67742 1.2536 5.67742 2.8Z"/>
</defs>
</svg>
