<svg width="58" height="28" viewBox="0 0 58 28" version="1.1" xmlns="http://www.w3.org/2000/svg" xmlns:xlink="http://www.w3.org/1999/xlink">
<title>Group</title>
<desc>Created using Figma</desc>
<g id="Canvas" transform="translate(-6596 -2681)">
<g id="Group">
<g id="Rectangle 13">
<use xlink:href="#path0_fill" transform="matrix(1 -7.77181e-09 7.77181e-09 1 6596 2681)"/>
</g>
<g id="Rectangle 13">
<use xlink:href="#path1_fill" transform="matrix(6.13734e-17 1 -1 6.10916e-17 6654 2681)"/>
</g>
<g id="Rectangle 13">
<use xlink:href="#path2_fill" transform="matrix(0.711944 0.702236 -0.711944 0.702236 6627.76 2683.8)"/>
</g>
<g id="Rectangle 13">
<use xlink:href="#path3_fill" transform="matrix(0.711944 -0.702236 0.711944 0.702236 6635.1 2690.4)"/>
</g>
<g id="Rectangle 13">
<use xlink:href="#path4_fill" transform="matrix(1 -7.66583e-09 7.87926e-09 1 6605.35 2692.2)"/>
</g>
<g id="Rectangle 13">
<use xlink:href="#path0_fill" transform="matrix(1 -7.66583e-09 7.87926e-09 1 6596 2703.4)"/>
</g>
<g id="Ellipse 9">
<use xlink:href="#path5_fill" transform="translate(6597.16 2692.2)" fill="#FF1818"/>
</g>
</g>
</g>
<defs>
<path id="path0_fill" d="M 0 0L 23.3935 0C 24.9399 0 26.1935 1.2536 26.1935 2.8C 26.1935 4.3464 24.9399 5.6 23.3935 5.6L 0 5.6L 0 0Z"/>
<path id="path1_fill" d="M 0 2.80645C 0 1.25649 1.25649 0 2.80645 0L 28 0L 28 5.6129L 2.80645 5.6129C 1.25649 5.6129 0 4.35641 0 2.80645Z"/>
<path id="path2_fill" d="M 0 0L 6.57594 0C 8.13306 0 9.39536 1.2623 9.39536 2.81942C 9.39536 4.37655 8.13306 5.63884 6.57594 5.63884L 0 5.63884L 0 0Z"/>
<path id="path3_fill" d="M 0 2.81942C 0 1.2623 1.2623 0 2.81942 0L 9.39536 0L 9.39536 5.63884L 2.81942 5.63884C 1.2623 5.63884 0 4.37654 0 2.81942Z"/>
<path id="path4_fill" d="M 0 2.8C 0 1.2536 1.2536 0 2.8 0L 14.0387 0C 15.5851 0 16.8387 1.2536 16.8387 2.8C 16.8387 4.3464 15.5851 5.6 14.0387 5.6L 2.8 5.6C 1.2536 5.6 0 4.3464 0 2.8Z"/>
<path id="path5_fill" d="M 5.67742 2.8C 5.67742 4.3464 4.40649 5.6 2.83871 5.6C 1.27093 5.6 0 4.3464 0 2.8C 0 1.2536 1.27093 0 2.83871 0C 4.40649 0 5.67742 1.2536 5.67742 2.8Z"/>
</defs>
</svg>
