<?xml version="1.0" encoding="UTF-8"?>
<svg width="58px" height="58px" viewBox="0 0 58 58" version="1.1" xmlns="http://www.w3.org/2000/svg" xmlns:xlink="http://www.w3.org/1999/xlink">
    <!-- Generator: Sketch 42 (36781) - http://www.bohemiancoding.com/sketch -->
    <title>Combined Shape</title>
    <desc>Created with Sketch.</desc>
    <defs></defs>
    <g id="portfolio" stroke="none" stroke-width="1" fill="none" fill-rule="evenodd">
        <g id="Desktop-HD-Copy-8" transform="translate(-55.000000, -38.000000)" fill-rule="nonzero" fill="#90949C">
            <g id="Group-6" transform="translate(55.000000, 38.000000)">
                <path d="M22.7593576,30.3 L27.551114,35.4913022 L26.448886,36.5086978 L19.9793399,29.4997084 L26.4483477,22.4913022 L27.5505756,23.5086978 L22.6665157,28.8 L39,28.8 L39,30.3 L22.7593576,30.3 Z M29,57.75 C13.1218134,57.75 0.25,44.8781866 0.25,29 C0.25,13.1218134 13.1218134,0.25 29,0.25 C44.8781866,0.25 57.75,13.1218134 57.75,29 C57.75,44.8781866 44.8781866,57.75 29,57.75 Z M29,56.25 C44.0497594,56.25 56.25,44.0497594 56.25,29 C56.25,13.9502406 44.0497594,1.75 29,1.75 C13.9502406,1.75 1.75,13.9502406 1.75,29 C1.75,44.0497594 13.9502406,56.25 29,56.25 Z" id="Combined-Shape"></path>
            </g>
        </g>
    </g>
</svg>