<?xml version="1.0" encoding="UTF-8"?>
<svg width="43px" height="18px" viewBox="0 0 43 18" version="1.1" xmlns="http://www.w3.org/2000/svg" xmlns:xlink="http://www.w3.org/1999/xlink">
    <!-- Generator: Sketch 52.6 (67491) - http://www.bohemiancoding.com/sketch -->
    <title>EM</title>
    <desc>Created with Sketch.</desc>
    <g id="Page-1" stroke="none" stroke-width="1" fill="none" fill-rule="evenodd">
        <path d="M1.11910806,16.9855201 C0.989355761,16.8572058 0.896097698,16.7048349 0.839331069,16.5284027 C0.78256444,16.3519706 0.648759393,16.2076191 0.437911914,16.0953441 C0.40547384,15.8547548 0.360872158,15.5780813 0.304105529,15.2653152 C0.2473389,14.9525491 0.190573122,14.6317681 0.133806493,14.3029628 C0.0770398641,13.9741574 0.0364928802,13.6453569 0.0121643249,13.3165515 C-0.0121642303,12.9877461 -1.3515804e-07,12.687014 0.0486569754,12.4143461 C0.0810950491,12.2699926 0.133806128,12.1336607 0.206791794,12.0053464 C0.27977746,11.8770321 0.352762031,11.7527295 0.425747697,11.6324348 C0.498733363,11.5121402 0.55549914,11.3878375 0.596046732,11.2595232 C0.636594324,11.1312089 0.640649023,11.0028966 0.608210949,10.8745823 C0.70552517,10.858543 0.766345646,10.8064161 0.790674201,10.7182 C0.815002757,10.6299839 0.892042026,10.6019156 1.02179432,10.6339942 C1.13532758,10.2811299 1.25696853,9.95232941 1.38672083,9.64758295 C1.51647312,9.3428365 1.65433287,9.04611414 1.8003042,8.75740697 C1.94627553,8.4686998 2.09629937,8.1759872 2.25038022,7.87926039 C2.40446107,7.58253358 2.54637551,7.24972336 2.67612781,6.88081976 C2.40040418,6.62419117 2.20172396,6.34751761 2.08008118,6.0507908 C1.95843841,5.75406399 1.86518034,5.45333187 1.8003042,5.14858542 C1.73542805,4.84383896 1.68677167,4.53508731 1.6543336,4.22232122 C1.62189552,3.90955512 1.55702035,3.59278395 1.45970613,3.27199821 C1.65433457,2.98329104 1.88950708,2.7467151 2.1652307,2.5622633 C2.44095433,2.3778115 2.74505671,2.22544056 3.07754696,2.10514591 C3.41003722,1.98485125 3.77090538,1.88861697 4.16016226,1.81644018 C4.54941914,1.74426339 4.96299838,1.6600584 5.40091238,1.56382267 C6.17942614,1.32323337 6.87683427,1.13477457 7.49315767,0.99844063 C8.10948107,0.862106689 8.70957643,0.749833364 9.29346176,0.661617285 C9.87734708,0.573401206 10.4855518,0.493205973 11.1180943,0.421029181 C11.7506367,0.348852389 12.4804824,0.240588825 13.3076533,0.0962352414 C13.3238723,0.144353103 13.3522552,0.168411672 13.3928028,0.168411672 L13.5509376,0.168411672 C13.5995948,0.280686682 13.6887981,0.336823345 13.8185504,0.336823345 C13.8185504,0.288705484 13.8144957,0.244598106 13.8063862,0.204499888 C13.7982767,0.16440167 13.794222,0.128313816 13.794222,0.0962352414 C13.8266601,0.0962352414 13.8712617,0.104254765 13.9280284,0.120294052 C13.984795,0.136333339 14.0334514,0.152372385 14.073999,0.168411672 C14.1145466,0.18445096 14.1510388,0.180441198 14.1834769,0.156382267 C14.215915,0.132323337 14.2240244,0.0801964355 14.2078054,0 C14.4024338,0.336825029 14.6538251,0.613498581 14.9619868,0.830028957 C15.2701485,1.04655933 15.6107432,1.23501813 15.983781,1.395411 C16,1.53976458 16.0040547,1.64401839 15.9959452,1.70817553 C15.9878357,1.77233268 15.9756716,1.83247911 15.9594526,1.88861661 C15.9432335,1.94475412 15.9351241,2.0089103 15.9351241,2.0810871 C15.9351241,2.15326389 15.9513429,2.25350793 15.983781,2.38182222 C15.7242764,2.81488298 15.4282834,3.15170295 15.0957932,3.39229226 C14.7633029,3.63288157 14.4105442,3.8173306 14.0375063,3.9456449 C13.6644685,4.07395919 13.2711627,4.17019347 12.8575773,4.23435062 C12.4439918,4.29850777 12.0223032,4.36667372 11.5924987,4.43885051 C11.1626943,4.5110273 10.7288415,4.61127134 10.2909275,4.73958564 C9.85301354,4.86789994 9.42321551,5.06036849 9.00152055,5.31699709 C8.87176826,5.26887923 8.75418201,5.24883042 8.64875827,5.25685006 C8.54333453,5.26486971 8.43385767,5.28491851 8.32032441,5.31699709 C8.20679115,5.34907566 8.0810955,5.38115375 7.94323369,5.41323233 C7.80537188,5.4453109 7.63912924,5.4453109 7.4445008,5.41323233 C7.31474851,5.52550734 7.16472467,5.60570257 6.99442478,5.65382043 C6.82412489,5.70193829 6.64977286,5.75005543 6.47136346,5.79817329 C6.55245864,5.97460545 6.58895093,6.15103496 6.58084141,6.32746712 C6.57273189,6.50389928 6.59300538,6.65627022 6.64166249,6.78458452 C7.32286204,6.84874167 8.07703594,6.84473191 8.90420682,6.77255511 C9.7313777,6.70037832 10.5423174,6.64825142 11.3370502,6.61617285 C11.3532692,6.69636928 11.3451598,6.75250594 11.3127217,6.78458452 C11.2802837,6.81666309 11.2640649,6.87279976 11.2640649,6.95299619 C11.4100362,7.04923191 11.547896,7.16952476 11.6776483,7.31387835 C11.8074005,7.45823193 11.9412056,7.59857359 12.0790674,7.73490753 C12.2169292,7.87124147 12.3588437,7.98351479 12.504815,8.07173087 C12.6507863,8.15994695 12.8210837,8.19603481 13.0157121,8.17999552 C13.0968073,8.34038839 13.1535731,8.50879838 13.1860111,8.68523054 C13.2184492,8.86166269 13.194121,9.04611173 13.1130258,9.23858317 C12.7886451,9.44709391 12.4723786,9.65961127 12.1642169,9.87614165 C11.8560552,10.092672 11.5357341,10.2891503 11.2032438,10.4655825 C10.8707535,10.6420147 10.5098854,10.7863661 10.1206285,10.8986411 C9.73137162,11.0109161 9.30968298,11.0590332 8.85554995,11.042994 L8.64875827,11.042994 C8.59199164,11.042994 8.52306176,11.0109159 8.44196658,10.9467587 C8.27977621,11.0269551 8.0648772,11.0550235 7.79726309,11.0309645 C7.52964898,11.0069056 7.30664057,11.0349739 7.12823116,11.1151704 C6.90116465,11.0349739 6.63760925,10.9948763 6.33755707,10.9948763 C6.03750489,10.9948763 5.77394949,10.9547787 5.54688298,10.8745823 C5.25494031,11.2916037 4.97922082,11.7286678 4.71971623,12.1857874 C4.46021164,12.6429071 4.23314853,13.1280883 4.03852009,13.6413455 C4.7035006,13.7375812 5.25493958,13.7776788 5.69285358,13.7616395 C6.13076757,13.7456002 6.54434681,13.7135221 6.93360369,13.6654043 C7.32286058,13.6172864 7.72427572,13.5691693 8.13786116,13.5210514 C8.5514466,13.4729336 9.0582839,13.4568945 9.65838826,13.4729338 C10.0638642,13.2804624 10.5301545,13.1481402 11.0572732,13.0759634 C11.5843919,13.0037866 12.0750104,12.8955231 12.5291434,12.7511695 C12.6913338,12.7992873 12.8291935,12.8915119 12.9427268,13.0278458 C13.0562601,13.1641797 13.1657369,13.3005116 13.2711607,13.4368456 C13.3765844,13.5731795 13.4860613,13.6894626 13.5995945,13.7856983 C13.7131278,13.8819341 13.8590969,13.9140121 14.0375063,13.8819336 C14.1186015,13.96213 14.1713126,14.0583643 14.1956411,14.1706393 C14.2199697,14.2829143 14.2442979,14.3871681 14.2686264,14.4834038 C14.292955,14.5796396 14.3294473,14.655825 14.3781044,14.7119625 C14.4267615,14.7681 14.5159649,14.7881488 14.6457172,14.7721096 C14.3375555,15.3976418 13.9929061,15.8788131 13.6117587,16.2156382 C13.2306114,16.5524632 12.8008133,16.8130977 12.3223517,16.9975495 C11.8438902,17.1820013 11.30867,17.3183332 10.7166751,17.4065493 C10.1246803,17.4947654 9.46376444,17.6030289 8.73390778,17.7313432 C8.55549838,17.7634218 8.40547454,17.759412 8.28383176,17.7193138 C8.16218899,17.6792156 8.03649334,17.6591668 7.90674104,17.6591668 C7.45260801,17.7393632 6.91333312,17.8195585 6.2889002,17.8997549 C5.66446728,17.9799513 5.03598903,18.0120294 4.4034466,17.9959901 C3.77090416,17.9799509 3.1626994,17.8997556 2.57881407,17.755402 C1.99492875,17.6110485 1.50836494,17.3544237 1.11910806,16.9855201 Z M21.0565471,18 C20.8943626,18 20.6429804,17.9765322 20.3023929,17.9295958 C20.0428978,17.6636232 19.8117883,17.2998719 19.6090577,16.8383312 C19.4063271,16.3767904 19.2522541,15.8839661 19.1468342,15.3598435 C19.0414143,14.835721 18.9927596,14.3116063 19.0008689,13.7874837 C19.0089781,13.2633611 19.1022328,12.797916 19.2806357,12.3911343 C19.2806357,12.3754888 19.3576722,12.1877463 19.5117475,11.8279009 C19.6658227,11.4680556 19.8644958,11.010433 20.1077725,10.4550196 C20.3510493,9.89960609 20.6267588,9.28162009 20.9349093,8.60104302 C21.2430599,7.92046596 21.5512058,7.25163301 21.8593563,6.59452412 C22.1675069,5.93741523 22.4634892,5.33898575 22.747312,4.79921773 C23.0311349,4.25944971 23.2784626,3.84094021 23.4893024,3.54367666 C23.6352685,3.32464037 23.7690687,3.11342996 23.890707,2.91003911 C24.0123454,2.70664827 24.1299274,2.51890568 24.2434566,2.34680574 C24.4218595,2.06518764 24.5880961,1.80313029 24.7421714,1.56062581 C24.8962467,1.31812134 25.0665378,1.09908833 25.25305,0.903520209 C25.4395622,0.707952086 25.6463443,0.53585472 25.8734026,0.387222947 C26.1004609,0.238591173 26.3761704,0.109518149 26.7005394,0 C26.8951608,0.078227249 27.065452,0.160364628 27.211418,0.246414602 C27.3573841,0.332464576 27.4871297,0.438069778 27.6006589,0.563233377 L27.6736415,0.89178618 C27.7060784,1.00130433 27.7587876,1.0756191 27.8317706,1.11473272 C27.9047537,1.15384635 27.9655719,1.17340287 28.0142273,1.17340287 C28.2250671,1.22033922 28.407522,1.27118617 28.5615972,1.32594524 C28.7156725,1.38070432 28.8819091,1.41590605 29.0603121,1.4315515 C29.1251859,1.5254242 29.1860041,1.61929549 29.2427687,1.71316819 C29.2995333,1.80704089 29.3603516,1.89308957 29.4252254,1.97131682 C29.7495944,2.42503486 30.0171948,2.86310089 30.2280346,3.28552803 C30.4388745,3.70795518 30.4388745,4.16948902 30.2280346,4.67014342 L30.2523622,4.92829205 C30.3334544,5.0378102 30.3739999,5.13950409 30.3739999,5.23337679 C30.3739999,5.32724949 30.3577817,5.46023382 30.3253448,5.63233377 C30.3091264,5.75749737 30.2969627,5.894393 30.2888535,6.04302477 C30.2807443,6.19165654 30.301017,6.35202 30.3496724,6.52411995 L30.5199653,6.71186441 C30.7794605,6.83702801 31.0308427,6.89960887 31.2741194,6.89960887 C31.5984884,6.89960887 31.8904161,6.8292054 32.1499113,6.68839635 C32.4094065,6.5475873 32.6526796,6.40678037 32.8797379,6.26597132 C33.0581409,6.14080772 33.2243775,6.03911382 33.3784527,5.96088657 C33.532528,5.88265932 33.6825464,5.82790107 33.8285125,5.79661017 C34.1690999,5.48370117 34.4813004,5.2059986 34.7651233,4.96349413 C35.0489461,4.72098966 35.3449284,4.47457752 35.653079,4.22425033 C36.2369432,3.77053228 36.8045804,3.28161931 37.3560077,2.75749674 C37.907435,2.23337417 38.3453265,1.58018644 38.6696955,0.79791395 C38.8480985,0.688395802 39.0508261,0.633637549 39.2778844,0.633637549 C39.5049427,0.633637549 39.7319976,0.67666189 39.9590559,0.762711864 C40.1861142,0.848761838 40.4131691,0.946544433 40.6402273,1.05606258 C40.6888827,1.08735348 40.7334828,1.1108213 40.7740289,1.12646675 C40.814575,1.1421122 40.8591751,1.16558003 40.9078304,1.19687093 C40.9078304,1.36897087 40.9808124,1.52542302 41.1267784,1.66623207 C41.2078707,1.72881387 41.2646344,1.76792691 41.2970713,1.78357236 L41.3943815,1.83050847 C41.5241291,1.90873572 41.633602,1.97913919 41.7228035,2.04172099 C41.8120049,2.10430279 41.8809323,2.19035147 41.9295877,2.29986962 C42.0755537,2.72229677 42.3188268,3.05084628 42.6594143,3.28552803 C42.6269774,3.45762798 42.6350865,3.62581404 42.6837418,3.79009126 C42.7323972,3.95436849 42.7891609,4.11473194 42.8540347,4.27118644 C42.8864716,4.33376824 42.9107989,4.3924378 42.9270173,4.44719687 C42.9432358,4.50195595 42.9675631,4.56844811 43,4.64667536 L42.4647938,4.59973924 L42.5377765,5.11603651 C42.5864318,5.38200915 42.5661591,5.67926824 42.4769576,6.00782269 C42.3877561,6.33637713 42.2863923,6.59452318 42.1728632,6.78226858 C42.2053001,7.25163207 42.2215183,7.62320593 42.2215183,7.8970013 C42.2215183,8.17079668 42.2053001,8.42503142 42.1728632,8.65971317 C42.1404263,8.89439492 42.0877171,9.11733923 42.0147341,9.3285528 C41.9417511,9.53976638 41.8484964,9.76271069 41.7349672,9.99739244 C41.799841,11.1864466 41.6579317,12.2737891 41.3092351,13.2594524 C40.9605384,14.2451157 40.5834651,15.1681834 40.1780038,16.0286832 C40.1293485,16.1382013 40.0806939,16.2398952 40.0320385,16.3337679 C39.9833832,16.4276406 39.9428377,16.5215119 39.9104008,16.6153846 C39.7319978,16.662321 39.5698157,16.7170792 39.4238497,16.779661 C39.2778836,16.8422428 39.1400289,16.9126463 39.0102813,16.9908735 C38.8318783,17.1003917 38.6534781,17.1903517 38.4750751,17.2607562 C38.2966722,17.3311607 38.1101628,17.3663625 37.9155414,17.3663625 C37.1370558,16.8187717 36.7356552,15.8722362 36.7113275,14.5267275 C36.6869998,13.1812188 36.9829821,11.4680678 37.5992832,9.38722295 C37.7128124,9.3089957 37.761467,9.19165658 37.7452485,9.03520209 L37.7452485,8.77705346 L37.501973,8.7535854 C37.4208807,8.7535854 37.3478988,8.76140801 37.283025,8.77705346 C37.2181512,8.7926989 37.1694966,8.86310237 37.1370597,8.98826597 C36.6180693,9.34811132 36.0544866,9.71968518 35.4462948,10.1029987 C34.8381029,10.4863122 34.2096474,10.8383296 33.5609094,11.1590613 C32.9121714,11.479793 32.2512795,11.7457617 31.5782138,11.9569752 C30.9051481,12.1681888 30.2523653,12.273794 29.6198458,12.273794 C27.9980008,12.273794 26.7735262,11.475888 25.9463853,9.88005215 L25.7274373,9.45762712 L25.4841618,9.83311604 C25.4355064,9.91134329 25.3503608,10.0638841 25.2287225,10.2907432 C25.1070841,10.5176022 24.9854475,10.7796595 24.8638092,11.0769231 C24.7421708,11.3741866 24.6367524,11.6792683 24.547551,11.9921773 C24.4583495,12.3050863 24.4299676,12.5788776 24.4624045,12.8135593 C24.2677831,12.9856593 24.0772192,13.1812245 23.890707,13.4002608 C23.7041949,13.6192971 23.5703947,13.8696205 23.4893024,14.1512386 C23.4568655,14.2294658 23.4487564,14.3037806 23.4649749,14.3741851 C23.4811933,14.4445897 23.5055206,14.5189044 23.5379575,14.5971317 C23.5217391,14.7066498 23.4893026,14.7848759 23.4406473,14.8318123 C23.3919919,14.8787486 23.3352282,14.9256843 23.2703544,14.9726206 C23.1892622,15.0508478 23.1081711,15.1329852 23.0270789,15.2190352 C22.9459866,15.3050852 22.8730047,15.4028678 22.8081309,15.5123859 C22.775694,15.6062586 22.7513667,15.7040412 22.7351483,15.8057366 C22.7189298,15.9074321 22.7027116,15.997392 22.6864932,16.0756193 C22.6864932,16.2477192 22.6621658,16.3650584 22.6135105,16.4276402 C22.451326,16.7561946 22.3094167,17.0260746 22.1877783,17.2372881 C22.0661399,17.4485017 21.9485579,17.6088652 21.8350288,17.7183833 C21.7214996,17.8279015 21.6039176,17.9022162 21.4822793,17.9413299 C21.3606409,17.9804435 21.2187316,18 21.0565471,18 Z" id="EM" fill="#FF1818"></path>
    </g>
</svg>