<?xml version="1.0" encoding="UTF-8"?>
<svg width="58px" height="58px" viewBox="0 0 58 58" version="1.1" xmlns="http://www.w3.org/2000/svg" xmlns:xlink="http://www.w3.org/1999/xlink">
    <!-- Generator: Sketch 42 (36781) - http://www.bohemiancoding.com/sketch -->
    <title>Group 8</title>
    <desc>Created with Sketch.</desc>
    <defs></defs>
    <g id="portfolio" stroke="none" stroke-width="1" fill="none" fill-rule="evenodd">
        <g id="Desktop-HD-Copy-3" transform="translate(-43.000000, -40.000000)" fill="#EEEEEE">
            <g id="Group-8" transform="translate(43.000000, 40.000000)">
                <path d="M29,57.75 C13.1218134,57.75 0.25,44.8781866 0.25,29 C0.25,13.1218134 13.1218134,0.25 29,0.25 C44.8781866,0.25 57.75,13.1218134 57.75,29 C57.75,44.8781866 44.8781866,57.75 29,57.75 Z M29,56.25 C44.0497594,56.25 56.25,44.0497594 56.25,29 C56.25,13.9502406 44.0497594,1.75 29,1.75 C13.9502406,1.75 1.75,13.9502406 1.75,29 C1.75,44.0497594 13.9502406,56.25 29,56.25 Z" id="Oval" fill-rule="nonzero"></path>
                <path d="M17.3099976,34.476 L25.0859976,34.476 L24.8139976,32.508 L19.7419976,32.508 L19.7419976,29.836 L24.4299976,29.836 L24.4299976,27.868 L19.7419976,27.868 L19.7419976,25.468 L24.7659976,25.468 L25.0379976,23.5 L17.3099976,23.5 L17.3099976,34.476 Z M38.1975765,34.476 L40.6615765,34.476 L40.6615765,23.5 L36.6775765,23.5 L34.1175765,30.748 L34.0535765,30.748 L31.4935765,23.5 L27.5095765,23.5 L27.5095765,34.476 L29.7495765,34.476 L29.7495765,26.396 L29.8295765,26.396 L32.6775765,34.476 L35.2695765,34.476 L38.1175765,26.396 L38.1975765,26.396 L38.1975765,34.476 Z" id="EM"></path>
            </g>
        </g>
    </g>
</svg>
